<svg width="84" height="24" viewBox="0 0 84 24" fill="none" xmlns="http://www.w3.org/2000/svg">
<rect x="6.5" y="0.5" width="73" height="23" rx="9.5" stroke="#8FD6E1"/>
<path d="M24.1702 17V6.09091H31.0097V7.50781H25.8161V10.8317H30.6528V12.2433H25.8161V15.5831H31.0736V17H24.1702ZM34.6731 12.142V17H33.0804V8.81818H34.6092V10.1499H34.7104C34.8986 9.71662 35.1934 9.36861 35.5946 9.10582C35.9995 8.84304 36.5091 8.71165 37.1234 8.71165C37.6809 8.71165 38.1692 8.82884 38.5882 9.06321C39.0073 9.29403 39.3322 9.63849 39.563 10.0966C39.7939 10.5547 39.9093 11.1211 39.9093 11.7958V17H38.3166V11.9876C38.3166 11.3945 38.1621 10.9311 37.8532 10.5973C37.5442 10.2599 37.1199 10.0913 36.5801 10.0913C36.2108 10.0913 35.8823 10.1712 35.5946 10.331C35.3105 10.4908 35.085 10.7251 34.9181 11.0341C34.7548 11.3395 34.6731 11.7088 34.6731 12.142ZM45.8645 8.81818V10.0966H41.3954V8.81818H45.8645ZM42.5939 6.85795H44.1866V14.5977C44.1866 14.9066 44.2328 15.1392 44.3251 15.2955C44.4174 15.4482 44.5364 15.5529 44.682 15.6097C44.8311 15.663 44.9927 15.6896 45.1667 15.6896C45.2946 15.6896 45.4064 15.6808 45.5023 15.663C45.5982 15.6452 45.6728 15.631 45.726 15.6204L46.0137 16.9361C45.9213 16.9716 45.79 17.0071 45.6195 17.0426C45.449 17.0817 45.236 17.103 44.9803 17.1065C44.5613 17.1136 44.1706 17.0391 43.8084 16.8828C43.4462 16.7266 43.1532 16.4851 42.9295 16.1584C42.7058 15.8317 42.5939 15.4215 42.5939 14.9279V6.85795ZM51.0647 17.1651C50.2586 17.1651 49.5644 16.9929 48.982 16.6484C48.4031 16.3004 47.9557 15.8121 47.6396 15.1836C47.3271 14.5515 47.1709 13.8111 47.1709 12.9624C47.1709 12.1243 47.3271 11.3857 47.6396 10.7464C47.9557 10.1072 48.396 9.60831 48.9607 9.24964C49.5289 8.89098 50.1929 8.71165 50.9529 8.71165C51.4145 8.71165 51.8619 8.788 52.2952 8.9407C52.7284 9.09339 53.1173 9.3331 53.4617 9.6598C53.8062 9.98651 54.0779 10.4109 54.2767 10.9329C54.4756 11.4513 54.575 12.0817 54.575 12.8239V13.3885H48.0711V12.1953H53.0143C53.0143 11.7763 52.9291 11.4052 52.7586 11.082C52.5882 10.7553 52.3485 10.4979 52.0395 10.3097C51.7341 10.1214 51.3754 10.0273 50.9635 10.0273C50.5161 10.0273 50.1254 10.1374 49.7916 10.3576C49.4614 10.5742 49.2057 10.8583 49.0246 11.2099C48.847 11.5579 48.7583 11.9361 48.7583 12.3445V13.2766C48.7583 13.8235 48.8541 14.2887 49.0459 14.6722C49.2412 15.0558 49.5129 15.3487 49.8609 15.5511C50.2089 15.75 50.6155 15.8494 51.0807 15.8494C51.3825 15.8494 51.6578 15.8068 51.9063 15.7216C52.1549 15.6328 52.3698 15.5014 52.5509 15.3274C52.732 15.1534 52.8705 14.9386 52.9664 14.6829L54.4738 14.9545C54.3531 15.3984 54.1365 15.7873 53.824 16.1211C53.515 16.4513 53.1262 16.7088 52.6574 16.8935C52.1922 17.0746 51.6613 17.1651 51.0647 17.1651ZM56.3422 17V8.81818H57.8816V10.1179H57.9668C58.1159 9.67756 58.3787 9.33132 58.7551 9.07919C59.1351 8.82351 59.5648 8.69567 60.0442 8.69567C60.1436 8.69567 60.2608 8.69922 60.3958 8.70632C60.5343 8.71342 60.6426 8.7223 60.7207 8.73295V10.2564C60.6568 10.2386 60.5431 10.2191 60.3798 10.1978C60.2164 10.1729 60.0531 10.1605 59.8897 10.1605C59.5133 10.1605 59.1777 10.2404 58.883 10.4002C58.5918 10.5565 58.361 10.7749 58.1905 11.0554C58.0201 11.3324 57.9348 11.6484 57.9348 12.0036V17H56.3422Z" fill="#8FD6E1"/>
</svg>
