<svg width="101" height="38" viewBox="0 0 101 38" fill="none" xmlns="http://www.w3.org/2000/svg">
<rect x="0.5" y="0.5" width="100" height="37" rx="9.5" stroke="#8FD6E1"/>
<path d="M10.6663 24V13.0909H12.3122V22.5831H17.2554V24H10.6663ZM22.5315 24.1651C21.7254 24.1651 21.0312 23.9929 20.4488 23.6484C19.8699 23.3004 19.4225 22.8121 19.1064 22.1836C18.7939 21.5515 18.6377 20.8111 18.6377 19.9624C18.6377 19.1243 18.7939 18.3857 19.1064 17.7464C19.4225 17.1072 19.8628 16.6083 20.4275 16.2496C20.9956 15.891 21.6597 15.7116 22.4197 15.7116C22.8813 15.7116 23.3287 15.788 23.762 15.9407C24.1952 16.0934 24.5841 16.3331 24.9285 16.6598C25.273 16.9865 25.5447 17.4109 25.7435 17.9329C25.9424 18.4513 26.0418 19.0817 26.0418 19.8239V20.3885H19.5379V19.1953H24.4811C24.4811 18.7763 24.3959 18.4052 24.2254 18.082C24.055 17.7553 23.8153 17.4979 23.5063 17.3097C23.2009 17.1214 22.8422 17.0273 22.4303 17.0273C21.9829 17.0273 21.5922 17.1374 21.2584 17.3576C20.9282 17.5742 20.6725 17.8583 20.4914 18.2099C20.3138 18.5579 20.2251 18.9361 20.2251 19.3445V20.2766C20.2251 20.8235 20.3209 21.2887 20.5127 21.6722C20.708 22.0558 20.9797 22.3487 21.3277 22.5511C21.6757 22.75 22.0823 22.8494 22.5475 22.8494C22.8493 22.8494 23.1246 22.8068 23.3731 22.7216C23.6217 22.6328 23.8366 22.5014 24.0177 22.3274C24.1988 22.1534 24.3373 21.9386 24.4332 21.6829L25.9406 21.9545C25.8199 22.3984 25.6032 22.7873 25.2907 23.1211C24.9818 23.4513 24.593 23.7088 24.1242 23.8935C23.659 24.0746 23.1281 24.1651 22.5315 24.1651ZM30.19 24.1811C29.6715 24.1811 29.2028 24.0852 28.7837 23.8935C28.3647 23.6982 28.0327 23.4158 27.7876 23.0465C27.5462 22.6772 27.4254 22.2244 27.4254 21.6882C27.4254 21.2266 27.5142 20.8466 27.6918 20.5483C27.8693 20.25 28.109 20.0138 28.4109 19.8398C28.7127 19.6658 29.0501 19.5344 29.4229 19.4457C29.7958 19.3569 30.1758 19.2894 30.5629 19.2433C31.0529 19.1864 31.4506 19.1403 31.756 19.1048C32.0614 19.0657 32.2834 19.0036 32.4219 18.9183C32.5604 18.8331 32.6296 18.6946 32.6296 18.5028V18.4656C32.6296 18.0004 32.4982 17.6399 32.2354 17.3842C31.9762 17.1286 31.5891 17.0007 31.0742 17.0007C30.538 17.0007 30.1154 17.1197 29.8065 17.3576C29.5011 17.592 29.2898 17.853 29.1726 18.1406L27.6758 17.7997C27.8533 17.3026 28.1126 16.9013 28.4535 16.5959C28.7979 16.2869 29.1939 16.0632 29.6413 15.9247C30.0888 15.7827 30.5593 15.7116 31.0529 15.7116C31.3796 15.7116 31.7259 15.7507 32.0916 15.8288C32.4609 15.9034 32.8054 16.0419 33.125 16.2443C33.4482 16.4467 33.7127 16.7362 33.9187 17.1126C34.1246 17.4854 34.2276 17.9702 34.2276 18.5668V24H32.6722V22.8814H32.6083C32.5053 23.0874 32.3509 23.2898 32.1449 23.4886C31.9389 23.6875 31.6744 23.8526 31.3512 23.984C31.0281 24.1154 30.641 24.1811 30.19 24.1811ZM30.5362 22.9027C30.9766 22.9027 31.353 22.8157 31.6655 22.6417C31.9815 22.4677 32.2212 22.2404 32.3846 21.9599C32.5515 21.6758 32.6349 21.3722 32.6349 21.049V19.9943C32.5781 20.0511 32.468 20.1044 32.3047 20.1541C32.1449 20.2003 31.962 20.2411 31.756 20.2766C31.5501 20.3086 31.3494 20.3388 31.1541 20.3672C30.9588 20.392 30.7955 20.4134 30.6641 20.4311C30.3551 20.4702 30.0728 20.5359 29.8171 20.6282C29.565 20.7205 29.3626 20.8537 29.2099 21.0277C29.0607 21.1982 28.9862 21.4254 28.9862 21.7095C28.9862 22.1037 29.1317 22.402 29.4229 22.6044C29.7141 22.8033 30.0852 22.9027 30.5362 22.9027ZM36.349 24V15.8182H37.8884V17.1179H37.9736C38.1228 16.6776 38.3856 16.3313 38.762 16.0792C39.142 15.8235 39.5716 15.6957 40.051 15.6957C40.1505 15.6957 40.2677 15.6992 40.4026 15.7063C40.5411 15.7134 40.6494 15.7223 40.7275 15.733V17.2564C40.6636 17.2386 40.55 17.2191 40.3866 17.1978C40.2233 17.1729 40.0599 17.1605 39.8966 17.1605C39.5202 17.1605 39.1846 17.2404 38.8898 17.4002C38.5986 17.5565 38.3678 17.7749 38.1974 18.0554C38.0269 18.3324 37.9417 18.6484 37.9417 19.0036V24H36.349ZM43.6985 19.142V24H42.1058V15.8182H43.6346V17.1499H43.7358C43.924 16.7166 44.2188 16.3686 44.62 16.1058C45.0249 15.843 45.5344 15.7116 46.1488 15.7116C46.7063 15.7116 47.1946 15.8288 47.6136 16.0632C48.0327 16.294 48.3576 16.6385 48.5884 17.0966C48.8192 17.5547 48.9347 18.1211 48.9347 18.7958V24H47.342V18.9876C47.342 18.3945 47.1875 17.9311 46.8786 17.5973C46.5696 17.2599 46.1452 17.0913 45.6055 17.0913C45.2362 17.0913 44.9077 17.1712 44.62 17.331C44.3359 17.4908 44.1104 17.7251 43.9435 18.0341C43.7802 18.3395 43.6985 18.7088 43.6985 19.142ZM55.0404 24V15.8182H56.5692V17.1499H56.6704C56.8408 16.6989 57.1196 16.3473 57.5067 16.0952C57.8937 15.8395 58.3572 15.7116 58.8969 15.7116C59.4438 15.7116 59.9019 15.8395 60.2712 16.0952C60.6441 16.3509 60.9193 16.7024 61.0969 17.1499H61.1821C61.3774 16.7131 61.6881 16.3651 62.1143 16.1058C62.5404 15.843 63.0482 15.7116 63.6377 15.7116C64.3799 15.7116 64.9854 15.9442 65.4541 16.4094C65.9264 16.8746 66.1626 17.576 66.1626 18.5135V24H64.5699V18.6626C64.5699 18.1087 64.4189 17.7074 64.1171 17.4588C63.8153 17.2102 63.4548 17.0859 63.0358 17.0859C62.5173 17.0859 62.1143 17.2457 61.8266 17.5653C61.539 17.8814 61.3952 18.288 61.3952 18.7852V24H59.8078V18.5614C59.8078 18.1175 59.6693 17.7607 59.3923 17.4908C59.1153 17.2209 58.7549 17.0859 58.311 17.0859C58.0091 17.0859 57.7304 17.1658 57.4747 17.3256C57.2226 17.4819 57.0184 17.7003 56.8621 17.9808C56.7094 18.2614 56.6331 18.5863 56.6331 18.9556V24H55.0404ZM71.7436 24.1651C70.9766 24.1651 70.3072 23.9893 69.7354 23.6378C69.1637 23.2862 68.7198 22.7944 68.4038 22.1623C68.0877 21.5302 67.9297 20.7915 67.9297 19.9464C67.9297 19.0977 68.0877 18.3555 68.4038 17.7198C68.7198 17.0842 69.1637 16.5906 69.7354 16.239C70.3072 15.8874 70.9766 15.7116 71.7436 15.7116C72.5107 15.7116 73.18 15.8874 73.7518 16.239C74.3235 16.5906 74.7674 17.0842 75.0835 17.7198C75.3995 18.3555 75.5575 19.0977 75.5575 19.9464C75.5575 20.7915 75.3995 21.5302 75.0835 22.1623C74.7674 22.7944 74.3235 23.2862 73.7518 23.6378C73.18 23.9893 72.5107 24.1651 71.7436 24.1651ZM71.7489 22.8281C72.2461 22.8281 72.658 22.6967 72.9847 22.4339C73.3114 22.1712 73.5529 21.8214 73.7092 21.3846C73.869 20.9478 73.9489 20.4666 73.9489 19.9411C73.9489 19.419 73.869 18.9396 73.7092 18.5028C73.5529 18.0625 73.3114 17.7092 72.9847 17.4428C72.658 17.1765 72.2461 17.0433 71.7489 17.0433C71.2482 17.0433 70.8327 17.1765 70.5025 17.4428C70.1758 17.7092 69.9325 18.0625 69.7727 18.5028C69.6165 18.9396 69.5384 19.419 69.5384 19.9411C69.5384 20.4666 69.6165 20.9478 69.7727 21.3846C69.9325 21.8214 70.1758 22.1712 70.5025 22.4339C70.8327 22.6967 71.2482 22.8281 71.7489 22.8281ZM77.3353 24V15.8182H78.8747V17.1179H78.96C79.1091 16.6776 79.3719 16.3313 79.7483 16.0792C80.1283 15.8235 80.558 15.6957 81.0374 15.6957C81.1368 15.6957 81.254 15.6992 81.3889 15.7063C81.5274 15.7134 81.6357 15.7223 81.7139 15.733V17.2564C81.6499 17.2386 81.5363 17.2191 81.373 17.1978C81.2096 17.1729 81.0463 17.1605 80.8829 17.1605C80.5065 17.1605 80.1709 17.2404 79.8762 17.4002C79.585 17.5565 79.3541 17.7749 79.1837 18.0554C79.0132 18.3324 78.928 18.6484 78.928 19.0036V24H77.3353ZM86.3255 24.1651C85.5194 24.1651 84.8251 23.9929 84.2427 23.6484C83.6639 23.3004 83.2164 22.8121 82.9004 22.1836C82.5879 21.5515 82.4316 20.8111 82.4316 19.9624C82.4316 19.1243 82.5879 18.3857 82.9004 17.7464C83.2164 17.1072 83.6568 16.6083 84.2214 16.2496C84.7896 15.891 85.4537 15.7116 86.2136 15.7116C86.6752 15.7116 87.1227 15.788 87.5559 15.9407C87.9892 16.0934 88.378 16.3331 88.7225 16.6598C89.0669 16.9865 89.3386 17.4109 89.5375 17.9329C89.7363 18.4513 89.8358 19.0817 89.8358 19.8239V20.3885H83.3319V19.1953H88.275C88.275 18.7763 88.1898 18.4052 88.0194 18.082C87.8489 17.7553 87.6092 17.4979 87.3002 17.3097C86.9949 17.1214 86.6362 17.0273 86.2243 17.0273C85.7768 17.0273 85.3862 17.1374 85.0524 17.3576C84.7221 17.5742 84.4664 17.8583 84.2853 18.2099C84.1078 18.5579 84.019 18.9361 84.019 19.3445V20.2766C84.019 20.8235 84.1149 21.2887 84.3066 21.6722C84.502 22.0558 84.7736 22.3487 85.1216 22.5511C85.4696 22.75 85.8762 22.8494 86.3414 22.8494C86.6433 22.8494 86.9185 22.8068 87.1671 22.7216C87.4157 22.6328 87.6305 22.5014 87.8116 22.3274C87.9927 22.1534 88.1312 21.9386 88.2271 21.6829L89.7346 21.9545C89.6138 22.3984 89.3972 22.7873 89.0847 23.1211C88.7757 23.4513 88.3869 23.7088 87.9181 23.8935C87.4529 24.0746 86.9221 24.1651 86.3255 24.1651Z" fill="#8FD6E1"/>
</svg>
