<svg width="347" height="357" viewBox="0 0 347 357" fill="none" xmlns="http://www.w3.org/2000/svg">
<path d="M230.813 24.9403C284.132 34.2038 310.791 38.8356 326.016 53.0136C339.335 65.4174 347.3 82.5215 348.221 100.699C349.274 121.477 335.662 144.862 308.437 191.632L272.993 252.521C238.076 312.505 220.618 342.497 198.674 351.518C179.564 359.374 157.959 358.387 139.646 348.82C118.616 337.834 103.966 306.375 74.6669 243.456L40.6968 170.507C11.3973 107.588 -3.25241 76.129 1.87394 52.9631C6.33818 32.7893 19.4869 15.6184 37.7988 6.0485C58.8268 -4.94074 93.0178 0.99963 161.4 12.8804L230.813 24.9403Z" fill="url(#paint0_linear_19_24)"/>
<defs>
<linearGradient id="paint0_linear_19_24" x1="22.7911" y1="-466.882" x2="168.341" y2="399.11" gradientUnits="userSpaceOnUse">
<stop offset="0.0398671" stop-color="#CFCBF7"/>
<stop offset="1" stop-color="#845050"/>
</linearGradient>
</defs>
</svg>
